<?xml version="1.0" encoding="UTF-8"?>
<svg id="_圖層_2" data-name="圖層 2" xmlns="http://www.w3.org/2000/svg" viewBox="0 0 512 512">
  <defs>
    <style>
      .cls-1 {
        fill: none;
        stroke: #6ecbf5;
        stroke-miterlimit: 10;
        stroke-width: 3px;
      }

      .cls-2 {
        fill: #2a2356;
      }

      .cls-2, .cls-3 {
        stroke-width: 0px;
      }

      .cls-3 {
        fill: #c252e1;
      }
    </style>
  </defs>
  <g id="_圖層_2-2" data-name="圖層 2">
    <g>
      <rect class="cls-2" width="512" height="512"/>
      <g>
        <path class="cls-3" d="m46.11,135.55v-39.3h107.81c52.65,0,90.68,36.53,90.68,89.68s-38.04,93.46-90.68,93.46H46.11v-39.3l.14.06c22.92,0,84.75-.06,107.67-.06,29.72,0,51.39-21.92,51.39-52.14s-21.66-52.4-51.39-52.4c-22.92,0-84.75-.18-107.67-.18l-.14.18Z"/>
        <path class="cls-3" d="m353.43,279.39c-52.14,0-90.43-40.3-90.43-93.46s38.29-89.68,90.43-89.68h101.01v39.3h-101.01c-29.47,0-51.14,21.92-51.14,52.4s21.41,52.14,51.14,52.14h73.05v-38.29h-77.33v-30.98h116.63v108.57h-112.35Z"/>
        <g>
          <path class="cls-1" d="m46.1,415.74v-74.82h64.53v16.05h-48.58v58.77h-15.95Zm25.32-29.74v-13.58h36.12v13.58h-36.12Z"/>
          <path class="cls-1" d="m153.44,415.74c-21.3,0-36.95-16.47-36.95-38.18s15.64-36.64,36.95-36.64h18.53c22.02,0,37.26,14.92,37.26,36.64s-15.64,38.18-37.26,38.18h-18.53Zm18.53-16.05c12.45,0,21.2-8.95,21.2-21.3s-8.75-21.41-21.2-21.41h-18.53c-12.04,0-20.89,8.95-20.89,21.41s8.75,21.3,20.89,21.3h18.53Z"/>
          <path class="cls-1" d="m285.59,415.74l-18.22-20.38h-23.26v-13.69h29.02c7.82,0,12.14-4.63,12.14-12.56s-4.53-12.14-12.14-12.14h-38.39v58.77h-15.95v-74.82h54.34c17.5,0,27.89,10.81,27.89,27.79,0,12.25-5.76,20.79-15.13,24.49l22.44,22.54h-22.74Z"/>
          <path class="cls-1" d="m347.03,415.74c-21.3,0-36.95-16.47-36.95-38.18s15.64-36.64,36.95-36.64h41.27v16.05h-41.27c-12.04,0-20.89,8.95-20.89,21.41s8.75,21.3,20.89,21.3h41.27v16.05h-41.27Z"/>
          <path class="cls-1" d="m397.87,415.74v-74.82h67.93v16.05h-51.97v42.71h52.08v16.05h-68.03Zm25.32-31.7v-12.66h39.73v12.66h-39.73Z"/>
        </g>
      </g>
    </g>
  </g>
</svg>