<?xml version="1.0" encoding="UTF-8"?>
<svg id="_圖層_2" data-name="圖層 2" xmlns="http://www.w3.org/2000/svg" viewBox="0 0 565.36 254.29">
  <defs>
    <style>
      .cls-1 {
        fill: none;
        stroke: #6ecbf5;
        stroke-miterlimit: 10;
        stroke-width: 4px;
      }

      .cls-2 {
        fill: #c252e1;
        stroke-width: 0px;
      }
    </style>
  </defs>
  <g id="_圖層_2-2" data-name="圖層 2">
    <g>
      <g>
        <path class="cls-1" d="m2,252.29v-100.06h86.29v21.47H23.33v78.59H2Zm33.86-39.77v-18.17h48.31v18.17h-48.31Z"/>
        <path class="cls-1" d="m145.54,252.29c-28.49,0-49.41-22.02-49.41-51.06s20.92-49,49.41-49h24.77c29.45,0,49.82,19.96,49.82,49s-20.92,51.06-49.82,51.06h-24.77Zm24.77-21.47c16.65,0,28.35-11.97,28.35-28.49s-11.7-28.63-28.35-28.63h-24.77c-16.1,0-27.94,11.97-27.94,28.63s11.7,28.49,27.94,28.49h24.77Z"/>
        <path class="cls-1" d="m322.25,252.29l-24.36-27.25h-31.1v-18.3h38.81c10.46,0,16.24-6.19,16.24-16.79s-6.06-16.24-16.24-16.24h-51.34v78.59h-21.33v-100.06h72.67c23.4,0,37.3,14.45,37.3,37.16,0,16.38-7.71,27.8-20.23,32.75l30,30.14h-30.42Z"/>
        <path class="cls-1" d="m404.41,252.29c-28.49,0-49.41-22.02-49.41-51.06s20.92-49,49.41-49h55.19v21.47h-55.19c-16.1,0-27.94,11.97-27.94,28.63s11.7,28.49,27.94,28.49h55.19v21.47h-55.19Z"/>
        <path class="cls-1" d="m472.39,252.29v-100.06h90.83v21.47h-69.5v57.12h69.64v21.47h-90.97Zm33.86-42.39v-16.93h53.12v16.93h-53.12Z"/>
      </g>
      <g>
        <path class="cls-2" d="m124.96,101.29V1.24h90.83v21.47h-69.5v57.12h69.64v21.47h-90.97Zm33.86-42.39v-16.93h53.12v16.93h-53.12Z"/>
        <path class="cls-2" d="m276.07,101.29c-28.49,0-49.41-22.02-49.41-51.06S247.59,1.24,276.07,1.24h55.19v21.47h-55.19c-16.1,0-27.94,11.97-27.94,28.63s11.7,28.49,27.94,28.49h39.91v-20.92h-42.25v-16.93h63.72v59.32h-61.38Z"/>
        <path class="cls-2" d="m352.18,101.29V1.24h90.83v21.47h-69.5v57.12h69.64v21.47h-90.97Zm33.86-42.39v-16.93h53.12v16.93h-53.12Z"/>
        <path class="cls-2" d="m476.72,34.68v66.61h-20.37V12.66c0-7.84,4.13-12.66,10.74-12.66,3.17,0,5.64,1.1,8.67,3.99l65.51,62.9V.27h20.51v89.6c0,7.98-4.4,12.8-10.74,12.8-3.3,0-5.92-1.24-8.81-4.13l-65.51-63.86Z"/>
        <path class="cls-2" d="m62.49,1.24H3.58v21.47h58.9c16.24,0,28.08,11.97,28.08,28.63s-11.84,28.49-28.08,28.49H3.58v21.47h58.9c28.76,0,49.55-22.02,49.55-51.06S91.25,1.24,62.49,1.24Z"/>
      </g>
    </g>
  </g>
</svg>